REM DIRINDEX 1\2\4,1\2\5,1\2\6,1\3\7,1\3\8,1\3\9,1\3\10
REM DIRNAME folder01,folder02,folder03,folder04,folder05,folder06,folder07,folder08,folder09,folder10
TITLE ""
FILE "a_49.mp3" MP3
  TRACK 01 AUDIO
    TITLE "0:"
    INDEX 01 00:00:00
  TRACK 02 AUDIO
    TITLE "6:cjc058_1412"
    INDEX 01 00:00:15
  TRACK 03 AUDIO
    TITLE "0:"
    INDEX 01 00:02:57
  TRACK 04 AUDIO
    TITLE "4:cjc058_1413"
    INDEX 01 00:03:29
  TRACK 05 AUDIO
    TITLE "0:"
    INDEX 01 00:04:56
  TRACK 06 AUDIO
    TITLE "5:cjc058_1414"
    INDEX 01 00:05:12
  TRACK 07 AUDIO
    TITLE "0:"
    INDEX 01 00:06:61
  TRACK 08 AUDIO
    TITLE "4:cjc058_1415"
    INDEX 01 00:07:72
  TRACK 09 AUDIO
    TITLE "0:"
    INDEX 01 00:09:40
  TRACK 10 AUDIO
    TITLE "5:cjc058_1416"
    INDEX 01 00:09:73
  TRACK 11 AUDIO
    TITLE "0:"
    INDEX 01 00:12:12
  TRACK 12 AUDIO
    TITLE "4:cjc058_1417"
    INDEX 01 00:13:20
  TRACK 13 AUDIO
    TITLE "0:"
    INDEX 01 00:14:74
  TRACK 14 AUDIO
    TITLE "5:cjc058_1418"
    INDEX 01 00:15:32
  TRACK 15 AUDIO
    TITLE "0:"
    INDEX 01 00:16:67
  TRACK 16 AUDIO
    TITLE "4:cjc058_1419"
    INDEX 01 00:17:72
  TRACK 17 AUDIO
    TITLE "0:"
    INDEX 01 00:19:30
  TRACK 18 AUDIO
    TITLE "5:cjc058_1420"
    INDEX 01 00:19:62
  TRACK 19 AUDIO
    TITLE "0:"
    INDEX 01 00:20:73
  TRACK 20 AUDIO
    TITLE "4:cjc058_1421"
    INDEX 01 00:22:07
  TRACK 21 AUDIO
    TITLE "0:"
    INDEX 01 00:23:42
  TRACK 22 AUDIO
    TITLE "5:cjc058_1422"
    INDEX 01 00:24:02
  TRACK 23 AUDIO
    TITLE "0:"
    INDEX 01 00:26:20
  TRACK 24 AUDIO
    TITLE "4:cjc058_1423"
    INDEX 01 00:27:28
  TRACK 25 AUDIO
    TITLE "0:"
    INDEX 01 00:28:72
  TRACK 26 AUDIO
    TITLE "5:cjc058_1424"
    INDEX 01 00:29:31
  TRACK 27 AUDIO
    TITLE "0:"
    INDEX 01 00:31:29
  TRACK 28 AUDIO
    TITLE "4:cjc058_1425"
    INDEX 01 00:32:39
  TRACK 29 AUDIO
    TITLE "0:"
    INDEX 01 00:34:08
  TRACK 30 AUDIO
    TITLE "5:cjc058_1426"
    INDEX 01 00:34:42
  TRACK 31 AUDIO
    TITLE "0:"
    INDEX 01 00:36:13
  TRACK 32 AUDIO
    TITLE "4:cjc058_1427"
    INDEX 01 00:37:24
  TRACK 33 AUDIO
    TITLE "0:"
    INDEX 01 00:38:57
  TRACK 34 AUDIO
    TITLE "5:cjc058_1428"
    INDEX 01 00:39:17
  TRACK 35 AUDIO
    TITLE "0:"
    INDEX 01 00:41:04
  TRACK 36 AUDIO
    TITLE "4:cjc058_1429"
    INDEX 01 00:42:12
  TRACK 37 AUDIO
    TITLE "0:"
    INDEX 01 00:44:01
  TRACK 38 AUDIO
    TITLE "5:cjc058_1430"
    INDEX 01 00:44:36
  TRACK 39 AUDIO
    TITLE "0:"
    INDEX 01 00:47:44
  TRACK 40 AUDIO
    TITLE "4:cjc058_1431"
    INDEX 01 00:48:51
  TRACK 41 AUDIO
    TITLE "0:"
    INDEX 01 00:50:25
  TRACK 42 AUDIO
    TITLE "5:cjc058_1432"
    INDEX 01 00:50:60
  TRACK 43 AUDIO
    TITLE "0:"
    INDEX 01 00:53:25
  TRACK 44 AUDIO
    TITLE "4:cjc058_1433"
    INDEX 01 00:54:30
  TRACK 45 AUDIO
    TITLE "0:"
    INDEX 01 00:55:71
  TRACK 46 AUDIO
    TITLE "5:cjc058_1434"
    INDEX 01 00:56:29
  TRACK 47 AUDIO
    TITLE "0:"
    INDEX 01 00:59:04
  TRACK 48 AUDIO
    TITLE "4:cjc058_1435"
    INDEX 01 01:00:10
  TRACK 49 AUDIO
    TITLE "0:"
    INDEX 01 01:01:25
  TRACK 50 AUDIO
    TITLE "5:cjc058_1436"
    INDEX 01 01:01:60
  TRACK 51 AUDIO
    TITLE "0:"
    INDEX 01 01:03:04
  TRACK 52 AUDIO
    TITLE "4:cjc058_1437"
    INDEX 01 01:04:13
  TRACK 53 AUDIO
    TITLE "0:"
    INDEX 01 01:05:71
  TRACK 54 AUDIO
    TITLE "5:cjc058_1438"
    INDEX 01 01:06:30
  TRACK 55 AUDIO
    TITLE "0:"
    INDEX 01 01:07:45
  TRACK 56 AUDIO
    TITLE "4:cjc058_1439"
    INDEX 01 01:08:54
  TRACK 57 AUDIO
    TITLE "0:"
    INDEX 01 01:10:24
  TRACK 58 AUDIO
    TITLE "5:cjc058_1440"
    INDEX 01 01:10:59
  TRACK 59 AUDIO
    TITLE "0:"
    INDEX 01 01:13:34
  TRACK 60 AUDIO
    TITLE "4:cjc058_1441"
    INDEX 01 01:14:39
  TRACK 61 AUDIO
    TITLE "0:"
    INDEX 01 01:15:56
  TRACK 62 AUDIO
    TITLE "5:cjc058_1442"
    INDEX 01 01:16:14
  TRACK 63 AUDIO
    TITLE "0:"
    INDEX 01 01:17:35
  TRACK 64 AUDIO
    TITLE "4:cjc058_1443"
    INDEX 01 01:18:43
  TRACK 65 AUDIO
    TITLE "0:"
    INDEX 01 01:19:58
  TRACK 66 AUDIO
    TITLE "5:cjc058_1444"
    INDEX 01 01:20:18
  TRACK 67 AUDIO
    TITLE "0:"
    INDEX 01 01:23:62
  TRACK 68 AUDIO
    TITLE "4:cjc058_1445"
    INDEX 01 01:24:69
  TRACK 69 AUDIO
    TITLE "0:"
    INDEX 01 01:26:13
  TRACK 70 AUDIO
    TITLE "5:cjc058_1446"
    INDEX 01 01:26:48
  TRACK 71 AUDIO
    TITLE "0:"
    INDEX 01 01:28:67
